<svg width="179" height="23" viewBox="0 0 179 23" fill="none" xmlns="http://www.w3.org/2000/svg">
<path d="M13.14 22.15C9.18 22.15 6.15 21.24 4.05 19.42C1.95 17.58 0.9 14.86 0.9 11.26C0.9 7.68 1.95 4.97 4.05 3.13C6.15 1.29 9.18 0.379999 13.14 0.399999L23.94 0.459998V4.3H13.47C10.87 4.3 8.94 4.85 7.68 5.95C6.42 7.05 5.79 8.82 5.79 11.26C5.79 13.7 6.42 15.48 7.68 16.6C8.94 17.7 10.87 18.25 13.47 18.25H24.24V22.15H13.14ZM26.7867 22V0.549999H31.1367V22H26.7867ZM42.3532 22.15C39.6732 22.15 37.5832 21.49 36.0832 20.17C34.5832 18.83 33.8332 16.87 33.8332 14.29C33.8332 11.69 34.5832 9.73 36.0832 8.41C37.5832 7.07 39.6732 6.4 42.3532 6.4H49.8532C51.6132 6.4 52.9532 6.82 53.8732 7.66C54.8132 8.48 55.2832 9.66 55.2832 11.2C55.2832 14.34 53.4732 15.91 49.8532 15.91H38.5132C38.9332 17.77 40.2132 18.7 42.3532 18.7H54.5032V22.15H42.3532ZM42.3532 9.85C40.2932 9.85 39.0232 10.72 38.5432 12.46H49.6432C50.0432 12.46 50.3532 12.34 50.5732 12.1C50.8132 11.86 50.9332 11.53 50.9332 11.11C50.9332 10.27 50.5032 9.85 49.6432 9.85H42.3532ZM62.0979 22C60.4779 22 59.2379 21.59 58.3779 20.77C57.5179 19.95 57.0879 18.78 57.0879 17.26C57.0879 15.76 57.5179 14.6 58.3779 13.78C59.2379 12.96 60.4779 12.55 62.0979 12.55H73.6179V11.83C73.6179 10.61 73.0179 10 71.8179 10H59.0979V6.55H72.9579C74.7779 6.55 76.0679 6.97 76.8279 7.81C77.5879 8.63 77.9679 9.79 77.9679 11.29V22H62.0979ZM62.8779 18.55H73.6179V16H62.8779C62.4979 16 62.1979 16.12 61.9779 16.36C61.7779 16.58 61.6779 16.88 61.6779 17.26C61.6779 17.64 61.7779 17.95 61.9779 18.19C62.1979 18.43 62.4979 18.55 62.8779 18.55ZM81.2789 22V6.55H94.7489C96.5089 6.55 97.7889 6.99 98.5889 7.87C99.4089 8.73 99.8189 9.87 99.8189 11.29V22H95.4689V11.8C95.4689 10.6 94.8689 10 93.6689 10H85.6289V22H81.2789ZM124.937 22.15C120.977 22.15 117.947 21.24 115.847 19.42C113.747 17.58 112.697 14.86 112.697 11.26C112.697 7.68 113.747 4.97 115.847 3.13C117.947 1.29 120.977 0.379999 124.937 0.399999L135.737 0.459998V4.3H125.267C122.667 4.3 120.737 4.85 119.477 5.95C118.217 7.05 117.587 8.82 117.587 11.26C117.587 13.7 118.217 15.48 119.477 16.6C120.737 17.7 122.667 18.25 125.267 18.25H136.037V22.15H124.937ZM142.694 22C141.074 22 139.834 21.59 138.974 20.77C138.114 19.95 137.684 18.78 137.684 17.26C137.684 15.76 138.114 14.6 138.974 13.78C139.834 12.96 141.074 12.55 142.694 12.55H154.214V11.83C154.214 10.61 153.614 10 152.414 10H139.694V6.55H153.554C155.374 6.55 156.664 6.97 157.424 7.81C158.184 8.63 158.564 9.79 158.564 11.29V22H142.694ZM143.474 18.55H154.214V16H143.474C143.094 16 142.794 16.12 142.574 16.36C142.374 16.58 142.274 16.88 142.274 17.26C142.274 17.64 142.374 17.95 142.574 18.19C142.794 18.43 143.094 18.55 143.474 18.55ZM161.875 22V6.55H173.695C175.435 6.55 176.715 6.99 177.535 7.87C178.355 8.73 178.765 9.87 178.765 11.29V14.5H174.355V11.83C174.355 10.63 173.755 10.03 172.555 10.03H166.285V22H161.875Z" fill="black"/>
</svg>
