<svg width="20" height="20" viewBox="0 0 20 20" fill="none" xmlns="http://www.w3.org/2000/svg">
<g clip-path="url(#clip0_122_11)">
<path d="M12.6942 4.57333C11.9917 4.54167 11.78 4.535 10 4.535C8.22 4.535 8.00917 4.54167 7.30667 4.57333C5.49833 4.65583 4.65583 5.5125 4.57417 7.30583C4.54167 8.00917 4.53417 8.22 4.53417 10C4.53417 11.78 4.54167 11.9908 4.57333 12.6942C4.65583 14.4842 5.495 15.3442 7.30583 15.4267C8.00833 15.4583 8.22 15.4658 10 15.4658C11.7808 15.4658 11.9917 15.4592 12.6942 15.4275C14.5025 15.345 15.3442 14.4867 15.4267 12.695C15.4583 11.9917 15.465 11.7808 15.465 10.0008C15.465 8.22083 15.4583 8.01 15.4267 7.3075C15.3442 5.51333 14.5008 4.65583 12.6942 4.57333ZM10 13.4233C8.10917 13.4233 6.57667 11.8908 6.57667 10C6.57667 8.10917 8.11 6.57667 10 6.57667C11.89 6.57667 13.4233 8.10917 13.4233 10C13.4233 11.8908 11.8908 13.4233 10 13.4233ZM13.5592 7.24167C13.1175 7.24167 12.7592 6.88333 12.7592 6.44167C12.7592 6 13.1175 5.64167 13.5592 5.64167C14.0008 5.64167 14.3592 6 14.3592 6.44167C14.3592 6.88333 14.0008 7.24167 13.5592 7.24167ZM12.2225 10C12.2225 11.2275 11.2275 12.2225 10 12.2225C8.7725 12.2225 7.7775 11.2275 7.7775 10C7.7775 8.7725 8.7725 7.7775 10 7.7775C11.2275 7.7775 12.2225 8.7725 12.2225 10ZM15.8333 0H4.16667C1.86583 0 0 1.86583 0 4.16667V15.8333C0 18.1342 1.86583 20 4.16667 20H15.8333C18.135 20 20 18.1342 20 15.8333V4.16667C20 1.86583 18.135 0 15.8333 0ZM16.6267 12.7483C16.5167 15.1725 15.1675 16.5158 12.7492 16.6267C12.0375 16.6592 11.8108 16.6667 10 16.6667C8.18917 16.6667 7.96333 16.6592 7.25167 16.6267C4.82833 16.5158 3.485 15.17 3.37333 12.7483C3.34083 12.0375 3.33333 11.8108 3.33333 10C3.33333 8.19 3.34083 7.9625 3.37333 7.25167C3.485 4.82833 4.83 3.48417 7.25167 3.37417C7.96333 3.34083 8.18917 3.33333 10 3.33333C11.8108 3.33333 12.0375 3.34083 12.7492 3.37333C15.1725 3.48417 16.5183 4.8325 16.6267 7.25083C16.6592 7.9625 16.6667 8.19 16.6667 10C16.6667 11.8108 16.6592 12.0375 16.6267 12.7483Z" fill="black"/>
</g>
<defs>
<clipPath id="clip0_122_11">
<rect width="20" height="20" fill="white"/>
</clipPath>
</defs>
</svg>
