<svg width="20" height="20" viewBox="0 0 20 20" fill="none" xmlns="http://www.w3.org/2000/svg">
<g clip-path="url(#clip0_122_13)">
<path fill-rule="evenodd" clip-rule="evenodd" d="M15.8333 20H4.16667C1.86583 20 0 18.1342 0 15.8333V4.16667C0 1.86583 1.86583 0 4.16667 0H15.8333C18.135 0 20 1.86583 20 4.16667V15.8333C20 18.1342 18.135 20 15.8333 20ZM13.5467 15.71C13.7258 15.8375 13.9558 15.8692 14.1617 15.7908C14.3667 15.7133 14.5183 15.5375 14.5642 15.3242C15.0467 13.0558 16.2183 7.3125 16.6575 5.24917C16.69 5.09333 16.635 4.93167 16.5133 4.8275C16.3908 4.72417 16.2208 4.69417 16.07 4.75C13.7408 5.61167 6.56667 8.30333 3.63417 9.38917C3.44833 9.4575 3.3275 9.63667 3.33333 9.83333C3.34 10.0292 3.4725 10.2 3.6625 10.2575C4.9775 10.65 6.70417 11.1975 6.70417 11.1975C6.70417 11.1975 7.51 13.6342 7.93083 14.8725C7.98333 15.0283 8.10583 15.1508 8.26583 15.1925C8.42667 15.2342 8.59667 15.1908 8.71667 15.0775C9.3925 14.44 10.4367 13.4542 10.4367 13.4542C10.4367 13.4542 12.4208 14.9092 13.5467 15.71ZM7.43 10.89L8.3625 13.9667L8.57 12.0183C8.57 12.0183 12.1733 8.76833 14.2283 6.915C14.2883 6.86083 14.2967 6.77 14.2467 6.70583C14.1967 6.64167 14.1058 6.62667 14.0375 6.67C11.6567 8.19083 7.43 10.89 7.43 10.89Z" fill="black"/>
</g>
<defs>
<clipPath id="clip0_122_13">
<rect width="20" height="20" fill="white"/>
</clipPath>
</defs>
</svg>
